<svg width="15" height="14" viewBox="0 0 15 14" fill="none" xmlns="http://www.w3.org/2000/svg">
<g clip-path="url(#clip0_2025_2191)">
<rect width="14" height="14" transform="translate(0.5)" fill="white" fill-opacity="0.01"/>
<path d="M13.1247 6.40625H3.98249L9.45437 1.65625C9.54187 1.57969 9.48874 1.4375 9.37312 1.4375H7.9903C7.92937 1.4375 7.87155 1.45937 7.82624 1.49844L1.92155 6.62188C1.86747 6.66875 1.8241 6.72671 1.79438 6.79181C1.76465 6.85692 1.74927 6.92765 1.74927 6.99922C1.74927 7.07079 1.76465 7.14152 1.79438 7.20663C1.8241 7.27173 1.86747 7.32969 1.92155 7.37656L7.86062 12.5313C7.88405 12.5516 7.91218 12.5625 7.94187 12.5625H9.37155C9.48718 12.5625 9.5403 12.4188 9.4528 12.3438L3.98249 7.59375H13.1247C13.1934 7.59375 13.2497 7.5375 13.2497 7.46875V6.53125C13.2497 6.4625 13.1934 6.40625 13.1247 6.40625Z" fill="#FF4800"/>
</g>
<defs>
<clipPath id="clip0_2025_2191">
<rect width="14" height="14" fill="white" transform="translate(0.5)"/>
</clipPath>
</defs>
</svg>
