<!-- icon Arrow -->
<svg width="14" height="15" viewBox="0 0 14 15" fill="none" xmlns="http://www.w3.org/2000/svg">
    <g clip-path="url(#clip0_1305_2497)"><rect width="14" height="14" transform="translate(0 0.600586)" fill="white" fill-opacity="0.01"/><g clip-path="url(#clip1_1305_2497)"><path d="M13.5534 7.39851L0.483083 0.845388C0.429958 0.818825 0.36902 0.812575 0.311208 0.826638C0.247045 0.8425 0.191781 0.88314 0.157517 0.939661C0.123253 0.996181 0.112782 1.06398 0.128395 1.1282L1.47527 6.63132C1.49558 6.71414 1.55652 6.78132 1.63777 6.80789L3.94558 7.60007L1.63933 8.39226C1.55808 8.42039 1.49715 8.48601 1.4784 8.56882L0.128395 14.0798C0.114333 14.1376 0.120583 14.1985 0.147145 14.2501C0.208083 14.3735 0.358083 14.4235 0.483083 14.3626L13.5534 7.84695C13.6018 7.82351 13.6409 7.78289 13.6659 7.73601C13.7268 7.61101 13.6768 7.46101 13.5534 7.39851ZM1.66902 12.5141L2.45496 9.30164L7.06746 7.71883C7.10339 7.70633 7.13308 7.6782 7.14558 7.6407C7.16746 7.57508 7.13308 7.50476 7.06746 7.48133L2.45496 5.90007L1.67215 2.70008L11.4846 7.62039L1.66902 12.5141Z" fill="#FFFFFF"/></g></g><defs><clipPath id="clip0_1305_2497"><rect width="14" height="14" fill="white" transform="translate(0 0.600586)"/></clipPath><clipPath id="clip1_1305_2497"><rect width="14" height="14" fill="white" transform="translate(0 0.600586)"/></clipPath></defs>
</svg>