<svg width="9" height="10" viewBox="0 0 9 10" fill="none" xmlns="http://www.w3.org/2000/svg">
<g clip-path="url(#clip0_2518_5649)">
<rect width="8.75" height="8.75" transform="translate(0.125 0.5)" fill="white" fill-opacity="0.01"/>
<g clip-path="url(#clip1_2518_5649)">
<path d="M7.98633 4.63867L4.29688 1.43652C4.26856 1.41211 4.23242 1.39844 4.19434 1.39844H3.33008C3.25781 1.39844 3.22461 1.48828 3.2793 1.53516L6.69922 4.50391H0.984375C0.941406 4.50391 0.90625 4.53906 0.90625 4.58203V5.16797C0.90625 5.21094 0.941406 5.24609 0.984375 5.24609H6.69824L3.27832 8.21484C3.22363 8.2627 3.25684 8.35156 3.3291 8.35156H4.22266C4.24121 8.35156 4.25977 8.34473 4.27344 8.33203L7.98633 5.11133C8.02014 5.08193 8.04724 5.04562 8.06582 5.00485C8.08439 4.96408 8.09401 4.9198 8.09401 4.875C8.09401 4.8302 8.08439 4.78592 8.06582 4.74515C8.04724 4.70438 8.02014 4.66807 7.98633 4.63867Z" fill="white"/>
</g>
</g>
<defs>
<clipPath id="clip0_2518_5649">
<rect width="8.75" height="8.75" fill="white" transform="translate(0.125 0.5)"/>
</clipPath>
<clipPath id="clip1_2518_5649">
<rect width="8.75" height="8.75" fill="white" transform="translate(0.125 0.5)"/>
</clipPath>
</defs>
</svg>