<svg width="18" height="18" viewBox="0 0 18 18" fill="none" xmlns="http://www.w3.org/2000/svg">
<path d="M1.08333 6.41666L8.58333 10.75C8.75 10.8333 8.83333 10.8333 9 10.8333C9.16667 10.8333 9.25 10.8333 9.41667 10.75L16.9167 6.41666C17.0833 6.33333 17.1667 6.25 17.25 6.08333C17.4167 5.66666 17.3333 5.16666 16.9167 4.91666L9.41667 0.583328C9.16667 0.416662 8.83333 0.416662 8.58333 0.583328L1.08333 4.91666C0.916667 5 0.833333 5.08333 0.75 5.25C0.583333 5.66666 0.666667 6.16666 1.08333 6.41666ZM16.9167 8.25L16.75 8.16666L9.41667 12.4167C9.16667 12.5833 8.83333 12.5833 8.58333 12.4167L1.25 8.16666L1.08333 8.25C0.666667 8.5 0.583333 9 0.75 9.41666C0.833333 9.58333 0.916667 9.66666 1.08333 9.75L8.58333 14.0833C8.83333 14.25 9.16667 14.25 9.41667 14.0833L16.9167 9.75C17.3333 9.5 17.4167 9 17.25 8.58333C17.1667 8.41666 17.0833 8.33333 16.9167 8.25ZM16.9167 11.5833L16.75 11.5L9.41667 15.75C9.16667 15.9167 8.83333 15.9167 8.58333 15.75L1.25 11.5L1.08333 11.5833C0.666667 11.8333 0.583333 12.3333 0.75 12.75C0.833333 12.9167 0.916667 13 1.08333 13.0833L8.58333 17.4167C8.83333 17.5833 9.16667 17.5833 9.41667 17.4167L16.9167 13.0833C17.3333 12.8333 17.4167 12.3333 17.25 11.9167C17.1667 11.75 17.0833 11.6667 16.9167 11.5833Z" fill="#0065CC"/>
</svg>
