<svg width="20" height="20" viewBox="0 0 20 20" fill="none" xmlns="http://www.w3.org/2000/svg">
<path d="M17.4166 1.66699H2.58329C2.34018 1.66699 2.10702 1.76357 1.93511 1.93548C1.7632 2.10739 1.66663 2.34054 1.66663 2.58366V17.417C1.66663 17.5374 1.69034 17.6566 1.7364 17.7678C1.78247 17.879 1.84999 17.9801 1.93511 18.0652C2.02023 18.1503 2.12128 18.2178 2.2325 18.2639C2.34371 18.3099 2.46291 18.3337 2.58329 18.3337H10.5666V11.8753H8.39996V9.37533H10.5666V7.50033C10.5217 7.06012 10.5737 6.61543 10.7189 6.19744C10.8641 5.77945 11.0989 5.39828 11.407 5.08067C11.7151 4.76306 12.0889 4.51669 12.5023 4.35886C12.9157 4.20102 13.3586 4.13554 13.8 4.16699C14.4486 4.163 15.0969 4.19639 15.7416 4.26699V6.51699H14.4166C13.3666 6.51699 13.1666 7.01699 13.1666 7.74199V9.35033H15.6666L15.3416 11.8503H13.1666V18.3337H17.4166C17.537 18.3337 17.6562 18.3099 17.7674 18.2639C17.8786 18.2178 17.9797 18.1503 18.0648 18.0652C18.1499 17.9801 18.2174 17.879 18.2635 17.7678C18.3096 17.6566 18.3333 17.5374 18.3333 17.417V2.58366C18.3333 2.46328 18.3096 2.34408 18.2635 2.23287C18.2174 2.12165 18.1499 2.0206 18.0648 1.93548C17.9797 1.85036 17.8786 1.78284 17.7674 1.73677C17.6562 1.6907 17.537 1.66699 17.4166 1.66699Z" fill="#FF5A1A"/>
</svg>
