<svg width="20" height="20" viewBox="0 0 20 20" fill="none" xmlns="http://www.w3.org/2000/svg">
<path d="M9.99998 1.87207C8.02121 1.87215 6.10703 2.57633 4.59995 3.85861C3.09287 5.14089 2.09123 6.91759 1.77426 8.87081C1.45729 10.824 1.84566 12.8263 2.8699 14.5194C3.89413 16.2124 5.48739 17.4858 7.36458 18.1116C7.78125 18.1846 7.9375 17.9346 7.9375 17.7158C7.9375 17.5179 7.92707 16.8616 7.92707 16.1637C5.83332 16.5491 5.29165 15.6533 5.12498 15.1846C4.94005 14.7287 4.64688 14.3247 4.27082 14.0075C3.97915 13.8512 3.56248 13.4658 4.26039 13.4554C4.52688 13.4843 4.78247 13.5771 5.00551 13.7258C5.22854 13.8744 5.41245 14.0747 5.54165 14.3096C5.65562 14.5143 5.80888 14.6946 5.99264 14.84C6.1764 14.9854 6.38704 15.0931 6.61251 15.157C6.83797 15.2209 7.07382 15.2396 7.30655 15.2122C7.53927 15.1847 7.76429 15.1116 7.96872 14.9971C8.00479 14.5734 8.1936 14.1773 8.49998 13.8825C6.64582 13.6742 4.70832 12.9554 4.70832 9.76793C4.6966 8.93972 5.00222 8.13841 5.56248 7.52835C5.30772 6.80853 5.33753 6.01858 5.64582 5.32001C5.64582 5.32001 6.34371 5.10125 7.93748 6.17418C9.30105 5.79916 10.7406 5.79916 12.1041 6.17418C13.6979 5.09085 14.3958 5.32001 14.3958 5.32001C14.7041 6.01857 14.734 6.80853 14.4791 7.52835C15.0411 8.13737 15.347 8.93937 15.3333 9.76793C15.3333 12.9658 13.3854 13.6742 11.5312 13.8825C11.7301 14.0841 11.8833 14.3261 11.9803 14.5921C12.0774 14.8581 12.1161 15.1419 12.0937 15.4242C12.0937 16.5388 12.0833 17.4346 12.0833 17.7158C12.0833 17.9346 12.2396 18.195 12.6562 18.1117C14.5301 17.4807 16.1188 16.2044 17.1387 14.5104C18.1585 12.8165 18.5432 10.8153 18.224 8.86393C17.9049 6.91261 16.9026 5.13821 15.3962 3.8575C13.8898 2.57678 11.9772 1.8731 9.99998 1.87207Z" fill="#FF5A1A"/>
</svg>
