<svg width="24" height="24" viewBox="0 0 24 24" fill="none" xmlns="http://www.w3.org/2000/svg">
<g id="Key">
<path id="Vector" d="M14.5722 1.28906C10.0749 1.28906 6.42938 4.9346 6.42938 9.43192C6.42938 11.315 7.06956 13.048 8.14099 14.4275L7.0401 15.5283L5.37135 13.8596C5.33055 13.8197 5.27574 13.7973 5.21867 13.7973C5.16159 13.7973 5.10678 13.8197 5.06599 13.8596L3.99992 14.9257C3.96 14.9665 3.93765 15.0213 3.93765 15.0783C3.93765 15.1354 3.96 15.1902 3.99992 15.231L5.66867 16.8998L4.46599 18.1025L2.79724 16.4337C2.75644 16.3938 2.70164 16.3714 2.64456 16.3714C2.58748 16.3714 2.53268 16.3938 2.49188 16.4337L1.42581 17.4998C1.38589 17.5406 1.36354 17.5954 1.36354 17.6525C1.36354 17.7095 1.38589 17.7643 1.42581 17.8051L3.09456 19.4739L1.34545 21.223C1.30557 21.2633 1.2832 21.3177 1.2832 21.3743C1.2832 21.431 1.30557 21.4854 1.34545 21.5257L2.47849 22.6587C2.56152 22.7417 2.69813 22.7417 2.78117 22.6587L9.57403 15.8658C11.004 16.975 12.7626 17.5762 14.5722 17.5748C19.0696 17.5748 22.7151 13.9292 22.7151 9.43192C22.7151 4.9346 19.0696 1.28906 14.5722 1.28906ZM18.8901 13.7498C17.7383 14.9042 16.2035 15.5391 14.5722 15.5391C12.941 15.5391 11.4062 14.9042 10.2544 13.7498C9.09992 12.598 8.4651 11.0632 8.4651 9.43192C8.4651 7.80067 9.09992 6.26585 10.2544 5.11406C11.4062 3.9596 12.941 3.32478 14.5722 3.32478C16.2035 3.32478 17.7383 3.9596 18.8901 5.11406C20.0446 6.26585 20.6794 7.80067 20.6794 9.43192C20.6794 11.0632 20.0446 12.598 18.8901 13.7498Z" fill="black"/>
</g>
</svg>
