<svg width="14" height="15" viewBox="0 0 14 15" fill="none" xmlns="http://www.w3.org/2000/svg">
<g clip-path="url(#clip0_2851_95)">
<rect width="14" height="14" transform="translate(0 0.399902)" fill="white" fill-opacity="0.01"/>
<path d="M2.33301 7.40023C2.33301 7.55494 2.39447 7.70331 2.50386 7.81271C2.61326 7.9221 2.76163 7.98356 2.91634 7.98356H7.34384L6.00217 9.31939C5.9475 9.37362 5.9041 9.43814 5.87449 9.50922C5.84487 9.58031 5.82963 9.65655 5.82963 9.73356C5.82963 9.81057 5.84487 9.88681 5.87449 9.9579C5.9041 10.029 5.9475 10.0935 6.00217 10.1477C6.0564 10.2024 6.12092 10.2458 6.192 10.2754C6.26309 10.305 6.33933 10.3203 6.41634 10.3203C6.49335 10.3203 6.56959 10.305 6.64068 10.2754C6.71176 10.2458 6.77628 10.2024 6.83051 10.1477L9.16384 7.81439C9.21695 7.75892 9.25858 7.6935 9.28634 7.62189C9.34468 7.47988 9.34468 7.32058 9.28634 7.17856C9.25858 7.10696 9.21695 7.04154 9.16384 6.98606L6.83051 4.65273C6.77612 4.59834 6.71155 4.55519 6.64049 4.52576C6.56942 4.49632 6.49326 4.48117 6.41634 4.48117C6.33942 4.48117 6.26326 4.49632 6.1922 4.52576C6.12113 4.55519 6.05656 4.59834 6.00217 4.65273C5.94779 4.70712 5.90464 4.77169 5.87521 4.84275C5.84577 4.91381 5.83062 4.98998 5.83062 5.06689C5.83062 5.14381 5.84577 5.21998 5.87521 5.29104C5.90464 5.3621 5.94779 5.42667 6.00217 5.48106L7.34384 6.81689H2.91634C2.76163 6.81689 2.61326 6.87835 2.50386 6.98775C2.39447 7.09715 2.33301 7.24552 2.33301 7.40023ZM9.91634 1.56689H4.08301C3.61888 1.56689 3.17376 1.75127 2.84557 2.07946C2.51738 2.40765 2.33301 2.85277 2.33301 3.31689V5.06689C2.33301 5.2216 2.39447 5.36998 2.50386 5.47937C2.61326 5.58877 2.76163 5.65023 2.91634 5.65023C3.07105 5.65023 3.21942 5.58877 3.32882 5.47937C3.43822 5.36998 3.49967 5.2216 3.49967 5.06689V3.31689C3.49967 3.16218 3.56113 3.01381 3.67053 2.90442C3.77993 2.79502 3.9283 2.73356 4.08301 2.73356H9.91634C10.0711 2.73356 10.2194 2.79502 10.3288 2.90442C10.4382 3.01381 10.4997 3.16218 10.4997 3.31689V11.4836C10.4997 11.6383 10.4382 11.7866 10.3288 11.896C10.2194 12.0054 10.0711 12.0669 9.91634 12.0669H4.08301C3.9283 12.0669 3.77993 12.0054 3.67053 11.896C3.56113 11.7866 3.49967 11.6383 3.49967 11.4836V9.73356C3.49967 9.57885 3.43822 9.43048 3.32882 9.32108C3.21942 9.21169 3.07105 9.15023 2.91634 9.15023C2.76163 9.15023 2.61326 9.21169 2.50386 9.32108C2.39447 9.43048 2.33301 9.57885 2.33301 9.73356V11.4836C2.33301 11.9477 2.51738 12.3928 2.84557 12.721C3.17376 13.0492 3.61888 13.2336 4.08301 13.2336H9.91634C10.3805 13.2336 10.8256 13.0492 11.1538 12.721C11.482 12.3928 11.6663 11.9477 11.6663 11.4836V3.31689C11.6663 2.85277 11.482 2.40765 11.1538 2.07946C10.8256 1.75127 10.3805 1.56689 9.91634 1.56689Z" fill="white"/>
</g>
<defs>
<clipPath id="clip0_2851_95">
<rect width="14" height="14" fill="white" transform="translate(0 0.399902)"/>
</clipPath>
</defs>
</svg>