<!-- icon Previous Arrow -->
<svg width="14" height="14" viewBox="0 0 14 14" fill="none" xmlns="http://www.w3.org/2000/svg">
    <path d="M12.6249 6.40625H3.48274L8.95461 1.65625C9.04211 1.57969 8.98899 1.4375 8.87336 1.4375H7.49055C7.42961 1.4375 7.3718 1.45937 7.32649 1.49844L1.4218 6.62188C1.36772 6.66875 1.32435 6.72671 1.29462 6.79181C1.2649 6.85692 1.24951 6.92765 1.24951 6.99922C1.24951 7.07079 1.2649 7.14152 1.29462 7.20663C1.32435 7.27173 1.36772 7.32969 1.4218 7.37656L7.36086 12.5313C7.3843 12.5516 7.41242 12.5625 7.44211 12.5625H8.8718C8.98742 12.5625 9.04055 12.4188 8.95305 12.3438L3.48274 7.59375H12.6249C12.6937 7.59375 12.7499 7.5375 12.7499 7.46875V6.53125C12.7499 6.4625 12.6937 6.40625 12.6249 6.40625Z" fill="white"/>
</svg>