<svg width="15" height="14" viewBox="0 0 15 14" fill="none" xmlns="http://www.w3.org/2000/svg">
<g clip-path="url(#clip0_2110_7646)">
<rect width="14" height="14" transform="translate(0.5)" fill="white" fill-opacity="0.01"/>
<g clip-path="url(#clip1_2110_7646)">
<path d="M12.5005 0.75H10.813V0.125C10.813 0.05625 10.7567 0 10.688 0H9.81299C9.74424 0 9.68799 0.05625 9.68799 0.125V0.75H7.31299V0.125C7.31299 0.05625 7.25674 0 7.18799 0H6.31299C6.24424 0 6.18799 0.05625 6.18799 0.125V0.75H4.50049C4.22393 0.75 4.00049 0.973437 4.00049 1.25V3.125H2.50049C2.22393 3.125 2.00049 3.34844 2.00049 3.625V13.5C2.00049 13.7766 2.22393 14 2.50049 14H10.5005C10.7771 14 11.0005 13.7766 11.0005 13.5V12H12.5005C12.7771 12 13.0005 11.7766 13.0005 11.5V1.25C13.0005 0.973437 12.7771 0.75 12.5005 0.75ZM9.87549 12.875H3.12549V4.25H6.53174V6.96875C6.53174 7.31406 6.81143 7.59375 7.15674 7.59375H9.87549V12.875ZM9.87549 6.59375H7.53174V4.25H7.53486L9.87549 6.59062V6.59375ZM11.8755 10.875H11.0005V6.125L8.00049 3.125H5.12549V1.875H6.18799V2.375C6.18799 2.44375 6.24424 2.5 6.31299 2.5H7.18799C7.25674 2.5 7.31299 2.44375 7.31299 2.375V1.875H9.68799V2.375C9.68799 2.44375 9.74424 2.5 9.81299 2.5H10.688C10.7567 2.5 10.813 2.44375 10.813 2.375V1.875H11.8755V10.875Z" fill="black" fill-opacity="0.45"/>
</g>
</g>
<defs>
<clipPath id="clip0_2110_7646">
<rect width="14" height="14" fill="white" transform="translate(0.5)"/>
</clipPath>
<clipPath id="clip1_2110_7646">
<rect width="14" height="14" fill="white" transform="translate(0.5)"/>
</clipPath>
</defs>
</svg>
