<svg width="18" height="10" viewBox="0 0 18 10" fill="none" xmlns="http://www.w3.org/2000/svg">
<path d="M1.5 1.66667H16.5C17 1.66667 17.3333 1.33333 17.3333 0.833333C17.3333 0.333333 17 0 16.5 0H1.5C0.999999 0 0.666666 0.333333 0.666666 0.833333C0.666666 1.33333 0.999999 1.66667 1.5 1.66667ZM9.83333 8.33333H1.5C0.999999 8.33333 0.666666 8.66667 0.666666 9.16667C0.666666 9.66667 0.999999 10 1.5 10H9.83333C10.3333 10 10.6667 9.66667 10.6667 9.16667C10.6667 8.66667 10.3333 8.33333 9.83333 8.33333ZM16.5 4.16667H1.5C0.999999 4.16667 0.666666 4.5 0.666666 5C0.666666 5.5 0.999999 5.83333 1.5 5.83333H16.5C17 5.83333 17.3333 5.5 17.3333 5C17.3333 4.5 17 4.16667 16.5 4.16667Z" fill="#0065CC"/>
</svg>