<svg width="15" height="14" viewBox="0 0 15 14" fill="none" xmlns="http://www.w3.org/2000/svg">
<g clip-path="url(#clip0_2110_7653)">
<rect width="14" height="14" transform="translate(0.5)" fill="white" fill-opacity="0.01"/>
<g clip-path="url(#clip1_2110_7653)">
<path d="M13.9498 8.77891L12.9264 7.90391C12.9748 7.60703 12.9998 7.30391 12.9998 7.00078C12.9998 6.69766 12.9748 6.39453 12.9264 6.09766L13.9498 5.22266C14.027 5.15657 14.0823 5.06856 14.1082 4.97031C14.1342 4.87206 14.1296 4.76824 14.0951 4.67266L14.0811 4.63203C13.7993 3.84457 13.3774 3.11459 12.8358 2.47734L12.8076 2.44453C12.7419 2.36727 12.6544 2.31173 12.5565 2.28523C12.4586 2.25873 12.3549 2.26252 12.2592 2.29609L10.9889 2.74766C10.5201 2.36328 9.99671 2.06016 9.43108 1.84766L9.18577 0.519531C9.16726 0.419597 9.11878 0.32766 9.04678 0.255934C8.97477 0.184208 8.88265 0.136089 8.78264 0.117969L8.74046 0.110156C7.92639 -0.0367187 7.07014 -0.0367187 6.25608 0.110156L6.21389 0.117969C6.11389 0.136089 6.02176 0.184208 5.94976 0.255934C5.87775 0.32766 5.82928 0.419597 5.81077 0.519531L5.56389 1.85391C5.00278 2.06645 4.48025 2.36941 4.01702 2.75078L2.73733 2.29609C2.64165 2.26225 2.53794 2.25833 2.43998 2.28484C2.34202 2.31136 2.25444 2.36705 2.18889 2.44453L2.16077 2.47734C1.61975 3.11504 1.19792 3.8449 0.915457 4.63203L0.901395 4.67266C0.831082 4.86797 0.888895 5.08672 1.04671 5.22266L2.08264 6.10703C2.03421 6.40078 2.01077 6.70078 2.01077 6.99922C2.01077 7.29922 2.03421 7.59922 2.08264 7.89141L1.04671 8.77578C0.969513 8.84187 0.914264 8.92988 0.888307 9.02813C0.86235 9.12637 0.866915 9.23019 0.901395 9.32578L0.915457 9.36641C1.19827 10.1539 1.61702 10.8805 2.16077 11.5211L2.18889 11.5539C2.2546 11.6312 2.34218 11.6867 2.44009 11.7132C2.53799 11.7397 2.64162 11.7359 2.73733 11.7023L4.01702 11.2477C4.48265 11.6305 5.00296 11.9336 5.56389 12.1445L5.81077 13.4789C5.82928 13.5788 5.87775 13.6708 5.94976 13.7425C6.02176 13.8142 6.11389 13.8623 6.21389 13.8805L6.25608 13.8883C7.07762 14.0359 7.91891 14.0359 8.74046 13.8883L8.78264 13.8805C8.88265 13.8623 8.97477 13.8142 9.04678 13.7425C9.11878 13.6708 9.16726 13.5788 9.18577 13.4789L9.43108 12.1508C9.99648 11.9388 10.5229 11.6347 10.9889 11.2508L12.2592 11.7023C12.3549 11.7362 12.4586 11.7401 12.5566 11.7136C12.6545 11.6871 12.7421 11.6314 12.8076 11.5539L12.8358 11.5211C13.3795 10.8789 13.7983 10.1539 14.0811 9.36641L14.0951 9.32578C14.1655 9.13359 14.1076 8.91484 13.9498 8.77891ZM11.817 6.28203C11.8561 6.51797 11.8764 6.76016 11.8764 7.00234C11.8764 7.24453 11.8561 7.48672 11.817 7.72266L11.7139 8.34922L12.8811 9.34766C12.7041 9.7553 12.4808 10.1412 12.2155 10.4977L10.7655 9.98359L10.2748 10.3867C9.90139 10.693 9.48577 10.9336 9.03577 11.1023L8.44046 11.3258L8.16077 12.8414C7.71947 12.8914 7.27394 12.8914 6.83264 12.8414L6.55296 11.3227L5.96233 11.0961C5.51702 10.9273 5.10296 10.6867 4.73264 10.382L4.24202 9.97734L2.78264 10.4961C2.51702 10.1383 2.29514 9.75234 2.11702 9.34609L3.29671 8.33828L3.19514 7.71328C3.15764 7.48047 3.13733 7.23984 3.13733 7.00234C3.13733 6.76328 3.15608 6.52422 3.19514 6.29141L3.29671 5.66641L2.11702 4.65859C2.29358 4.25078 2.51702 3.86641 2.78264 3.50859L4.24202 4.02734L4.73264 3.62266C5.10296 3.31797 5.51702 3.07734 5.96233 2.90859L6.55452 2.68516L6.83421 1.16641C7.27327 1.11641 7.72171 1.11641 8.16233 1.16641L8.44202 2.68203L9.03733 2.90547C9.48577 3.07422 9.90296 3.31484 10.2764 3.62109L10.767 4.02422L12.217 3.51016C12.4826 3.86797 12.7045 4.25391 12.8826 4.66016L11.7155 5.65859L11.817 6.28203ZM7.49983 4.09609C5.98108 4.09609 4.74983 5.32734 4.74983 6.84609C4.74983 8.36484 5.98108 9.59609 7.49983 9.59609C9.01858 9.59609 10.2498 8.36484 10.2498 6.84609C10.2498 5.32734 9.01858 4.09609 7.49983 4.09609ZM8.73733 8.08359C8.57502 8.24637 8.38213 8.37545 8.16975 8.4634C7.95738 8.55136 7.7297 8.59645 7.49983 8.59609C7.03264 8.59609 6.59358 8.41328 6.26233 8.08359C6.09956 7.92128 5.97048 7.72839 5.88252 7.51601C5.79457 7.30364 5.74947 7.07596 5.74983 6.84609C5.74983 6.37891 5.93264 5.93984 6.26233 5.60859C6.59358 5.27734 7.03264 5.09609 7.49983 5.09609C7.96702 5.09609 8.40608 5.27734 8.73733 5.60859C8.90011 5.7709 9.02919 5.9638 9.11714 6.17617C9.2051 6.38855 9.25019 6.61622 9.24983 6.84609C9.24983 7.31328 9.06702 7.75234 8.73733 8.08359Z" fill="black" fill-opacity="0.45"/>
</g>
</g>
<defs>
<clipPath id="clip0_2110_7653">
<rect width="14" height="14" fill="white" transform="translate(0.5)"/>
</clipPath>
<clipPath id="clip1_2110_7653">
<rect width="14" height="14" fill="white" transform="translate(0.5)"/>
</clipPath>
</defs>
</svg>
