<svg width="15" height="14" viewBox="0 0 15 14" fill="none" xmlns="http://www.w3.org/2000/svg">
<g clip-path="url(#clip0_2110_7639)">
<rect width="14" height="14" transform="translate(0.5)" fill="white" fill-opacity="0.01"/>
<g clip-path="url(#clip1_2110_7639)">
<path d="M14.0536 6.79793L0.983327 0.244802C0.930202 0.218239 0.869265 0.211989 0.811452 0.226052C0.747289 0.241914 0.692025 0.282554 0.657761 0.339075C0.623498 0.395595 0.613026 0.46339 0.62864 0.527614L1.97551 6.03074C1.99583 6.11355 2.05676 6.18074 2.13801 6.2073L4.44583 6.99949L2.13958 7.79168C2.05833 7.8198 1.99739 7.88543 1.97864 7.96824L0.62864 13.4792C0.614577 13.537 0.620827 13.5979 0.64739 13.6495C0.708327 13.7729 0.858327 13.8229 0.983327 13.762L14.0536 7.24636C14.1021 7.22293 14.1411 7.1823 14.1661 7.13543C14.2271 7.01043 14.1771 6.86043 14.0536 6.79793ZM2.16926 11.9136L2.9552 8.70105L7.5677 7.11824C7.60364 7.10574 7.63333 7.07761 7.64583 7.04011C7.6677 6.97449 7.63333 6.90418 7.5677 6.88074L2.9552 5.29949L2.17239 2.09949L11.9849 7.0198L2.16926 11.9136Z" fill="white"/>
</g>
</g>
<defs>
<clipPath id="clip0_2110_7639">
<rect width="14" height="14" fill="white" transform="translate(0.5)"/>
</clipPath>
<clipPath id="clip1_2110_7639">
<rect width="14" height="14" fill="white" transform="translate(0.5)"/>
</clipPath>
</defs>
</svg>
