<svg width="15" height="14" viewBox="0 0 15 14" fill="none" xmlns="http://www.w3.org/2000/svg">
<g clip-path="url(#clip0_2348_5332)">
<rect width="14" height="14" transform="translate(0.5)" fill="white" fill-opacity="0.01"/>
<path d="M13.0781 6.62188L7.175 1.49844C7.12969 1.45937 7.07188 1.4375 7.01094 1.4375H5.62813C5.5125 1.4375 5.45938 1.58125 5.54688 1.65625L11.0188 6.40625H1.875C1.80625 6.40625 1.75 6.4625 1.75 6.53125V7.46875C1.75 7.5375 1.80625 7.59375 1.875 7.59375H11.0172L5.54531 12.3438C5.45781 12.4203 5.51094 12.5625 5.62656 12.5625H7.05625C7.08594 12.5625 7.11563 12.5516 7.1375 12.5313L13.0781 7.37813C13.1322 7.33109 13.1756 7.27299 13.2053 7.20776C13.235 7.14253 13.2504 7.07168 13.2504 7C13.2504 6.92832 13.235 6.85747 13.2053 6.79224C13.1756 6.72701 13.1322 6.66891 13.0781 6.62188Z" fill="black" fill-opacity="0.45"/>
</g>
<defs>
<clipPath id="clip0_2348_5332">
<rect width="14" height="14" fill="white" transform="translate(0.5)"/>
</clipPath>
</defs>
</svg>
