<svg width="14" height="14" viewBox="0 0 14 14" fill="none" xmlns="http://www.w3.org/2000/svg">
<g id="wrapper">
<path id="Union" d="M7.80901 6.99951L11.9106 2.11045C11.9793 2.0292 11.9215 1.90576 11.8153 1.90576H10.5684C10.4949 1.90576 10.4246 1.93857 10.3762 1.99482L6.99339 6.02764L3.61057 1.99482C3.5637 1.93857 3.49339 1.90576 3.41839 1.90576H2.17151C2.06526 1.90576 2.00745 2.0292 2.0762 2.11045L6.17776 6.99951L2.0762 11.8886C2.0608 11.9067 2.05092 11.9288 2.04773 11.9524C2.04454 11.976 2.04818 11.9999 2.05822 12.0215C2.06826 12.043 2.08426 12.0613 2.10435 12.074C2.12443 12.0867 2.14774 12.0934 2.17151 12.0933H3.41839C3.49182 12.0933 3.56214 12.0605 3.61057 12.0042L6.99339 7.97139L10.3762 12.0042C10.4231 12.0605 10.4934 12.0933 10.5684 12.0933H11.8153C11.9215 12.0933 11.9793 11.9698 11.9106 11.8886L7.80901 6.99951Z" fill="#FF4D4F"/>
</g>
</svg>
